<?xml version="1.0" encoding="utf-8"?>
<!-- Generator: Adobe Illustrator 19.2.1, SVG Export Plug-In . SVG Version: 6.00 Build 0)  -->
<svg version="1.1" xmlns="http://www.w3.org/2000/svg" xmlns:xlink="http://www.w3.org/1999/xlink" x="0px" y="0px"
	 viewBox="0 0 512 512" style="enable-background:new 0 0 512 512;" xml:space="preserve">
<style type="text/css">
	.st0{fill:#298063;}
	.st1{fill:#87B7DD;}
	.st2{fill:#1F3049;}
	.st3{fill:#B9BDC2;}
	.st4{fill:#CA6A46;}
	.st5{fill:#5082A9;}
	.st6{fill:#D5872A;}
	.st7{fill:#57646E;}
	.st8{fill:#75A897;}
	.st9{fill:#C93A3A;}
	.st10{fill:#E6CA56;}
	.st11{fill:#DA8B80;}
	.st12{fill:#E4C856;}
	.st13{fill:#C9402E;}
	.st14{fill:#A32929;}
	.st15{clip-path:url(#SVGID_2_);}
	.st16{fill:#D17F73;}
	.st17{fill:#E6A585;}
	.st18{fill:#733D28;}
	.st19{fill:#FFFFFF;}
	.st20{fill:#4E3333;}
	.st21{clip-path:url(#SVGID_4_);}
	.st22{fill:#FFB6AB;}
	.st23{clip-path:url(#SVGID_6_);}
	.st24{clip-path:url(#SVGID_8_);}
	.st25{clip-path:url(#SVGID_10_);}
	.st26{fill:#F09162;}
	.st27{clip-path:url(#SVGID_12_);}
	.st28{clip-path:url(#SVGID_14_);}
	.st29{clip-path:url(#SVGID_16_);}
	.st30{clip-path:url(#SVGID_18_);}
	.st31{clip-path:url(#SVGID_20_);}
	.st32{clip-path:url(#SVGID_22_);}
	.st33{fill:#572020;}
	.st34{clip-path:url(#SVGID_24_);}
	.st35{clip-path:url(#SVGID_26_);}
	.st36{clip-path:url(#SVGID_28_);}
	.st37{fill:#A34B2A;}
	.st38{clip-path:url(#SVGID_30_);}
	.st39{clip-path:url(#SVGID_32_);}
	.st40{clip-path:url(#SVGID_34_);}
	.st41{clip-path:url(#SVGID_36_);}
	.st42{fill:#E09C6F;}
	.st43{clip-path:url(#SVGID_38_);}
	.st44{clip-path:url(#SVGID_40_);}
	.st45{clip-path:url(#SVGID_42_);}
	.st46{clip-path:url(#SVGID_44_);}
	.st47{clip-path:url(#SVGID_46_);}
	.st48{clip-path:url(#SVGID_48_);}
	.st49{clip-path:url(#SVGID_50_);}
	.st50{clip-path:url(#SVGID_52_);}
	.st51{clip-path:url(#SVGID_54_);}
	.st52{clip-path:url(#SVGID_56_);}
	.st53{clip-path:url(#SVGID_58_);}
	.st54{clip-path:url(#SVGID_60_);}
	.st55{clip-path:url(#SVGID_62_);}
	.st56{clip-path:url(#SVGID_64_);fill:#75A897;}
	.st57{clip-path:url(#SVGID_64_);fill:#A34B2A;}
	.st58{clip-path:url(#SVGID_64_);}
	.st59{clip-path:url(#SVGID_64_);fill:#1F3049;}
	.st60{clip-path:url(#SVGID_66_);}
	.st61{clip-path:url(#SVGID_68_);}
	.st62{clip-path:url(#SVGID_70_);}
	.st63{clip-path:url(#SVGID_72_);}
	.st64{clip-path:url(#SVGID_74_);}
	.st65{clip-path:url(#SVGID_76_);}
	.st66{clip-path:url(#SVGID_78_);}
	.st67{clip-path:url(#SVGID_80_);}
	.st68{clip-path:url(#SVGID_82_);}
	.st69{clip-path:url(#SVGID_84_);}
	.st70{clip-path:url(#SVGID_86_);}
	.st71{clip-path:url(#SVGID_88_);}
	.st72{clip-path:url(#SVGID_90_);}
	.st73{clip-path:url(#SVGID_92_);}
	.st74{clip-path:url(#SVGID_94_);}
	.st75{clip-path:url(#SVGID_96_);}
	.st76{clip-path:url(#SVGID_98_);}
	.st77{clip-path:url(#SVGID_98_);fill:none;}
	.st78{clip-path:url(#SVGID_100_);}
</style>
<g id="ICON">
	<g>
		<ellipse class="st2" cx="256.4" cy="256" rx="228.4" ry="228.4"/>
	</g>
</g>
<g id="Layer_6">
	<g>
		<defs>
			<ellipse id="SVGID_85_" cx="259.4" cy="256.6" rx="228.4" ry="228.4"/>
		</defs>
		<clipPath id="SVGID_2_">
			<use xlink:href="#SVGID_85_"  style="overflow:visible;"/>
		</clipPath>
		<g class="st15">
			<g>
				
					<ellipse transform="matrix(0.9453 -0.3262 0.3262 0.9453 -70.7023 67.9428)" class="st11" cx="167.3" cy="244.8" rx="22.2" ry="38.6"/>
				
					<ellipse transform="matrix(0.3262 -0.9453 0.9453 0.3262 4.9423 496.5677)" class="st11" cx="350.8" cy="244.8" rx="38.6" ry="22.2"/>
			</g>
			<path class="st5" d="M464.4,499l-0.1-0.8c0-47.6-21.2-93.8-47.1-102.6l-110.3-37.4c-25.9-8.8-68.3-8.8-94.2-0.1l-111.9,37.6
				c-25.9,8.7-47.1,54.8-47.1,102.5l-0.1,0.8H464.4z"/>
			<path class="st11" d="M308.2,363.3c0,25.6-20.7,46.3-46.3,46.3h-5.6c-25.6,0-46.3-20.7-46.3-46.3V244c0-25.6,20.7-46.3,46.3-46.3
				h5.6c25.6,0,46.3,20.7,46.3,46.3V363.3z"/>
			<g>
				<path class="st22" d="M355,167.8c0-39.7-43-72-96-72c-53,0-96,32.2-96,72c0,3.7,0.4,7.3,1.1,10.9l15.2,132.4
					c0,19.8,16.6,35.9,37,35.9h87.4c20.4,0,37-16.1,37-35.9L353.9,179C354.6,175.3,355,171.6,355,167.8z"/>
			</g>
			<g>
				<circle class="st2" cx="226.2" cy="238.8" r="9.9"/>
				<circle class="st2" cx="291.9" cy="238.8" r="9.9"/>
			</g>
			<g>
				<polygon class="st37" points="344.8,216.9 356.6,217 357.2,139.3 332.9,126.5 				"/>
				<polygon class="st37" points="160.9,216.7 172.7,216.7 185.9,126.5 160.9,139 				"/>
			</g>
			<g>
				<polygon class="st33" points="254.2,290 213.1,290 254.2,274 				"/>
				<polygon class="st33" points="262.8,290 304.9,290 262.8,274 				"/>
			</g>
			
				<ellipse transform="matrix(9.500526e-02 -0.9955 0.9955 9.500526e-02 106.6714 369.9009)" class="st37" cx="256.8" cy="126.3" rx="33.8" ry="85"/>
			<path class="st33" d="M333.4,252l-3.9,39.8c0,17.2-14.4,31.2-32.1,31.2h-75.9c-17.7,0-32.1-14-32.1-31.2l-4.6-39.8h-12.9l7,61.1
				c0,19.8,16.6,35.9,37,35.9h87.4c20.4,0,37-16.1,37-35.9l6.1-61.1H333.4z"/>
			<g>
				<polygon class="st33" points="308.4,331 303.5,289.5 213.9,289.5 209.7,331 				"/>
			</g>
			<g>
				<g>
					<path class="st19" d="M293.8,303.8c-0.5-1.1-0.7-1.6-1.2-2.7c-2.5-5.5-9.2-7.8-15.3-6.2c-11.9,3.2-24.6,3.2-36.5,0
						c-6.1-1.6-12.8,0.7-15.3,6.2c-0.5,1.1-0.7,1.6-1.2,2.7C248.6,312.8,269.4,312.8,293.8,303.8z"/>
				</g>
			</g>
			<g>
				<path class="st37" d="M246.5,206c1.3,6.5-2.9,12.8-9.4,14.2l-23.5,4.8c-6.5,1.3-12.8-2.9-14.2-9.4l0,0
					c-1.3-6.5,2.9-12.8,9.4-14.2l23.5-4.8C238.9,195.3,245.2,199.5,246.5,206L246.5,206z"/>
				<path class="st37" d="M271.5,206c-1.3,6.5,2.9,12.8,9.4,14.2l23.5,4.8c6.5,1.3,12.8-2.9,14.2-9.4l0,0c1.3-6.5-2.9-12.8-9.4-14.2
					l-23.5-4.8C279.2,195.3,272.8,199.5,271.5,206L271.5,206z"/>
			</g>
		</g>
	</g>
</g>
</svg>
