<?xml version="1.0" encoding="utf-8"?>
<!-- Generator: Adobe Illustrator 19.2.1, SVG Export Plug-In . SVG Version: 6.00 Build 0)  -->
<svg version="1.1" xmlns="http://www.w3.org/2000/svg" xmlns:xlink="http://www.w3.org/1999/xlink" x="0px" y="0px"
	 viewBox="0 0 512 512" style="enable-background:new 0 0 512 512;" xml:space="preserve">
<style type="text/css">
	.st0{fill:#298063;}
	.st1{fill:#87B7DD;}
	.st2{fill:#1F3049;}
	.st3{fill:#B9BDC2;}
	.st4{fill:#CA6A46;}
	.st5{fill:#5082A9;}
	.st6{fill:#D5872A;}
	.st7{fill:#57646E;}
	.st8{fill:#75A897;}
	.st9{fill:#C93A3A;}
	.st10{fill:#E6CA56;}
	.st11{fill:#DA8B80;}
	.st12{fill:#E4C856;}
	.st13{fill:#C9402E;}
	.st14{fill:#A32929;}
	.st15{clip-path:url(#SVGID_2_);}
	.st16{fill:#D17F73;}
	.st17{fill:#E6A585;}
	.st18{fill:#733D28;}
	.st19{fill:#FFFFFF;}
	.st20{fill:#4E3333;}
	.st21{clip-path:url(#SVGID_4_);}
	.st22{fill:#FFB6AB;}
	.st23{clip-path:url(#SVGID_6_);}
	.st24{clip-path:url(#SVGID_8_);}
	.st25{clip-path:url(#SVGID_10_);}
	.st26{fill:#F09162;}
	.st27{clip-path:url(#SVGID_12_);}
	.st28{clip-path:url(#SVGID_14_);}
	.st29{clip-path:url(#SVGID_16_);}
	.st30{clip-path:url(#SVGID_18_);}
	.st31{clip-path:url(#SVGID_20_);}
	.st32{clip-path:url(#SVGID_22_);}
	.st33{fill:#572020;}
	.st34{clip-path:url(#SVGID_24_);}
	.st35{clip-path:url(#SVGID_26_);}
	.st36{clip-path:url(#SVGID_28_);}
	.st37{fill:#A34B2A;}
	.st38{clip-path:url(#SVGID_30_);}
	.st39{clip-path:url(#SVGID_32_);}
	.st40{clip-path:url(#SVGID_34_);}
	.st41{clip-path:url(#SVGID_36_);}
	.st42{fill:#E09C6F;}
	.st43{clip-path:url(#SVGID_38_);}
	.st44{clip-path:url(#SVGID_40_);}
	.st45{clip-path:url(#SVGID_42_);}
	.st46{clip-path:url(#SVGID_44_);}
	.st47{clip-path:url(#SVGID_46_);}
	.st48{clip-path:url(#SVGID_48_);}
	.st49{clip-path:url(#SVGID_50_);}
	.st50{clip-path:url(#SVGID_52_);}
	.st51{clip-path:url(#SVGID_54_);}
	.st52{clip-path:url(#SVGID_56_);}
	.st53{clip-path:url(#SVGID_58_);}
	.st54{clip-path:url(#SVGID_60_);}
	.st55{clip-path:url(#SVGID_62_);}
	.st56{clip-path:url(#SVGID_64_);fill:#75A897;}
	.st57{clip-path:url(#SVGID_64_);fill:#A34B2A;}
	.st58{clip-path:url(#SVGID_64_);}
	.st59{clip-path:url(#SVGID_64_);fill:#1F3049;}
	.st60{clip-path:url(#SVGID_66_);}
	.st61{clip-path:url(#SVGID_68_);}
	.st62{clip-path:url(#SVGID_70_);}
	.st63{clip-path:url(#SVGID_72_);}
	.st64{clip-path:url(#SVGID_74_);}
	.st65{clip-path:url(#SVGID_76_);}
	.st66{clip-path:url(#SVGID_78_);}
	.st67{clip-path:url(#SVGID_80_);}
	.st68{clip-path:url(#SVGID_82_);}
	.st69{clip-path:url(#SVGID_84_);}
	.st70{clip-path:url(#SVGID_86_);}
	.st71{clip-path:url(#SVGID_88_);}
	.st72{clip-path:url(#SVGID_90_);}
	.st73{clip-path:url(#SVGID_92_);}
	.st74{clip-path:url(#SVGID_94_);}
	.st75{clip-path:url(#SVGID_96_);}
	.st76{clip-path:url(#SVGID_98_);}
	.st77{clip-path:url(#SVGID_98_);fill:none;}
	.st78{clip-path:url(#SVGID_100_);}
</style>
<g id="ICON">
	<g>
		<ellipse class="st6" cx="256.4" cy="255.9" rx="228.4" ry="228.4"/>
	</g>
</g>
<g id="Layer_6">
	<g>
		<defs>
			<ellipse id="SVGID_95_" cx="258.3" cy="256.4" rx="228.4" ry="228.4"/>
		</defs>
		<clipPath id="SVGID_2_">
			<use xlink:href="#SVGID_95_"  style="overflow:visible;"/>
		</clipPath>
		<g class="st15">
			<path class="st11" d="M491.7,546.6l-0.1-1.1c0-64.5-24.1-126.9-53.5-138.8l-125.3-50.6c-29.4-11.9-77.6-11.9-107.1-0.1
				L78.6,406.8C49.1,418.7,25,481,25,545.5l-0.1,1.1H491.7z"/>
			<path class="st2" d="M443.9,502.2c0-51.2-19.2-100.8-42.6-110.3l-60-24.2l-83,38.3l-82.6-38.1L115.4,392
				C92,401.4,72.8,451,72.8,502.2l-0.1,0.8H444L443.9,502.2z"/>
			<path class="st11" d="M307.5,358.2c0,25.6-20.7,46.3-46.3,46.3h-5.6c-25.6,0-46.3-20.7-46.3-46.3V238.9
				c0-25.6,20.7-46.3,46.3-46.3h5.6c25.6,0,46.3,20.7,46.3,46.3V358.2z"/>
			<g>
				<path class="st22" d="M353.1,240.2c0,54.1-42.4,97.8-94.8,97.8l0,0c-52.4,0-94.8-43.8-94.8-97.8v-56.4c0-54,42.4-97.8,94.8-97.8
					l0,0c52.4,0,94.8,43.8,94.8,97.8V240.2z"/>
			</g>
			<g>
				<circle class="st2" cx="225.5" cy="230.2" r="9.9"/>
				<circle class="st2" cx="291.2" cy="230.2" r="9.9"/>
			</g>
			<g>
				<g>
					<path class="st7" d="M209.2,208.6c6.6-6,15.5-7.9,24-5.5c7.5,2.1,10.6-9.5,3.2-11.6c-12.7-3.6-26-0.3-35.7,8.6
						C195,205.3,203.5,213.8,209.2,208.6L209.2,208.6z"/>
				</g>
				<g>
					<path class="st7" d="M316,200.1c-9.7-8.8-23-12.1-35.7-8.6c-7.4,2.1-4.3,13.7,3.2,11.6c8.5-2.4,17.5-0.5,24,5.5
						C313.2,213.8,321.7,205.3,316,200.1L316,200.1z"/>
				</g>
			</g>
			<g>
				<ellipse class="st4" cx="258.3" cy="280.1" rx="28" ry="19.5"/>
				<ellipse class="st9" cx="258.3" cy="294.6" rx="28" ry="24"/>
				<g>
					<path class="st2" d="M224.1,269.1c0.6,21.4,15.7,38.4,34.3,38.4s33.7-17.1,34.3-38.4c-9.5,5-21.4,8-34.3,8
						C245.5,277.1,233.6,274.1,224.1,269.1z"/>
					<path class="st19" d="M239.1,289.4h38.4c3.3,0,5.9-2.6,5.9-5.8V273c-7.6,2.6-16.1,4-25.1,4c-9,0-17.5-1.5-25.1-4v10.6
						C233.2,286.8,235.9,289.4,239.1,289.4z"/>
				</g>
			</g>
			<g>
				<path class="st19" d="M176.9,366.6c-0.1,0.2-0.2,0.4-0.3,0.7c-8.3,20.2,3.7,44.3,26.8,53.8c23.1,9.5,48.6,0.9,57-19.3
					c0.1-0.2,0.2-0.4,0.3-0.7L176.9,366.6z"/>
				<path class="st19" d="M339.8,366.6c0.1,0.2,0.2,0.4,0.3,0.7c8.3,20.2-3.7,44.3-26.8,53.8c-23.1,9.5-48.6,0.9-57-19.3
					c-0.1-0.2-0.2-0.4-0.3-0.7L339.8,366.6z"/>
			</g>
			<path class="st2" d="M172.5,226.6c-1.9-7.5-2.8-15.3-2.8-23.4c0-51.3,39.9-92.9,89-92.9c49.2,0,89,41.6,89,92.9
				c0,8.1-1,15.9-2.8,23.4h14.7c1.7-8.3,2.6-17,2.6-25.8c0-64.2-46.3-116.3-103.5-116.3c-57.1,0-103.5,52.1-103.5,116.3
				c0,8.9,0.9,17.5,2.6,25.8H172.5z"/>
			
				<ellipse transform="matrix(0.3778 -0.9259 0.9259 0.3778 46.9042 351.3799)" class="st2" cx="284.9" cy="140.8" rx="30.6" ry="69.8"/>
			
				<ellipse transform="matrix(0.7636 -0.6457 0.6457 0.7636 -38.6908 170.2771)" class="st2" cx="213.2" cy="138" rx="57.8" ry="23.9"/>
			<g>
				<path class="st2" d="M168.8,262.1l18.9-100.3l-23-4.7l-23.1,122.5c-3.2,17.2,7.6,33.9,24.1,37.3c13.8,2.8,27.2-4.5,33.2-16.9
					c-2,0-4-0.2-6-0.6C176.3,296.1,165.5,279.4,168.8,262.1z"/>
				<path class="st2" d="M347.2,262.1l-18.9-100.3l23-4.7l23.1,122.5c3.2,17.2-7.6,33.9-24.1,37.3c-13.8,2.8-27.2-4.5-33.2-16.9
					c2,0,4-0.2,6-0.6C339.7,296.1,350.5,279.4,347.2,262.1z"/>
			</g>
		</g>
	</g>
</g>
</svg>
