<?xml version="1.0" encoding="utf-8"?>
<!-- Generator: Adobe Illustrator 19.2.1, SVG Export Plug-In . SVG Version: 6.00 Build 0)  -->
<svg version="1.1" xmlns="http://www.w3.org/2000/svg" xmlns:xlink="http://www.w3.org/1999/xlink" x="0px" y="0px"
	 viewBox="0 0 512 512" style="enable-background:new 0 0 512 512;" xml:space="preserve">
<style type="text/css">
	.st0{fill:#298063;}
	.st1{fill:#87B7DD;}
	.st2{fill:#1F3049;}
	.st3{fill:#B9BDC2;}
	.st4{fill:#CA6A46;}
	.st5{fill:#5082A9;}
	.st6{fill:#D5872A;}
	.st7{fill:#57646E;}
	.st8{fill:#75A897;}
	.st9{fill:#C93A3A;}
	.st10{fill:#E6CA56;}
	.st11{fill:#DA8B80;}
	.st12{fill:#E4C856;}
	.st13{fill:#C9402E;}
	.st14{fill:#A32929;}
	.st15{clip-path:url(#SVGID_2_);}
	.st16{fill:#D17F73;}
	.st17{fill:#E6A585;}
	.st18{fill:#733D28;}
	.st19{fill:#FFFFFF;}
	.st20{fill:#4E3333;}
	.st21{clip-path:url(#SVGID_4_);}
	.st22{fill:#FFB6AB;}
	.st23{clip-path:url(#SVGID_6_);}
	.st24{clip-path:url(#SVGID_8_);}
	.st25{clip-path:url(#SVGID_10_);}
	.st26{fill:#F09162;}
	.st27{clip-path:url(#SVGID_12_);}
	.st28{clip-path:url(#SVGID_14_);}
	.st29{clip-path:url(#SVGID_16_);}
	.st30{clip-path:url(#SVGID_18_);}
	.st31{clip-path:url(#SVGID_20_);}
	.st32{clip-path:url(#SVGID_22_);}
	.st33{fill:#572020;}
	.st34{clip-path:url(#SVGID_24_);}
	.st35{clip-path:url(#SVGID_26_);}
	.st36{clip-path:url(#SVGID_28_);}
	.st37{fill:#A34B2A;}
	.st38{clip-path:url(#SVGID_30_);}
	.st39{clip-path:url(#SVGID_32_);}
	.st40{clip-path:url(#SVGID_34_);}
	.st41{clip-path:url(#SVGID_36_);}
	.st42{fill:#E09C6F;}
	.st43{clip-path:url(#SVGID_38_);}
	.st44{clip-path:url(#SVGID_40_);}
	.st45{clip-path:url(#SVGID_42_);}
	.st46{clip-path:url(#SVGID_44_);}
	.st47{clip-path:url(#SVGID_46_);}
	.st48{clip-path:url(#SVGID_48_);}
	.st49{clip-path:url(#SVGID_50_);}
	.st50{clip-path:url(#SVGID_52_);}
	.st51{clip-path:url(#SVGID_54_);}
	.st52{clip-path:url(#SVGID_56_);}
	.st53{clip-path:url(#SVGID_58_);}
	.st54{clip-path:url(#SVGID_60_);}
	.st55{clip-path:url(#SVGID_62_);}
	.st56{clip-path:url(#SVGID_64_);fill:#75A897;}
	.st57{clip-path:url(#SVGID_64_);fill:#A34B2A;}
	.st58{clip-path:url(#SVGID_64_);}
	.st59{clip-path:url(#SVGID_64_);fill:#1F3049;}
	.st60{clip-path:url(#SVGID_66_);}
	.st61{clip-path:url(#SVGID_68_);}
	.st62{clip-path:url(#SVGID_70_);}
	.st63{clip-path:url(#SVGID_72_);}
	.st64{clip-path:url(#SVGID_74_);}
	.st65{clip-path:url(#SVGID_76_);}
	.st66{clip-path:url(#SVGID_78_);}
	.st67{clip-path:url(#SVGID_80_);}
	.st68{clip-path:url(#SVGID_82_);}
	.st69{clip-path:url(#SVGID_84_);}
	.st70{clip-path:url(#SVGID_86_);}
	.st71{clip-path:url(#SVGID_88_);}
	.st72{clip-path:url(#SVGID_90_);}
	.st73{clip-path:url(#SVGID_92_);}
	.st74{clip-path:url(#SVGID_94_);}
	.st75{clip-path:url(#SVGID_96_);}
	.st76{clip-path:url(#SVGID_98_);}
	.st77{clip-path:url(#SVGID_98_);fill:none;}
	.st78{clip-path:url(#SVGID_100_);}
</style>
<g id="ICON">
	<g>
		<ellipse class="st12" cx="256.4" cy="255.8" rx="228.4" ry="228.4"/>
	</g>
</g>
<g id="Layer_6">
	<g>
		<defs>
			<ellipse id="SVGID_81_" cx="258.4" cy="256.6" rx="228.4" ry="228.4"/>
		</defs>
		<clipPath id="SVGID_2_">
			<use xlink:href="#SVGID_81_"  style="overflow:visible;"/>
		</clipPath>
		<g class="st15">
			<g>
				<g>
					
						<ellipse transform="matrix(0.9453 -0.3262 0.3262 0.9453 -67.8001 67.2532)" class="st22" cx="166.7" cy="235.8" rx="22.2" ry="38.6"/>
					
						<ellipse transform="matrix(0.3262 -0.9453 0.9453 0.3262 13.042 489.9305)" class="st22" cx="350.2" cy="235.8" rx="38.6" ry="22.2"/>
				</g>
				<path class="st0" d="M463.8,490l-0.1-0.8c0-47.6-21.2-93.8-47.1-102.6l-110.3-37.4c-25.9-8.8-68.3-8.8-94.2-0.1l-111.9,37.6
					c-25.9,8.7-47.1,54.8-47.1,102.5L53,490H463.8z"/>
				<path class="st11" d="M307.6,354.3c0,25.6-20.7,46.3-46.3,46.3h-5.6c-25.6,0-46.3-20.7-46.3-46.3V235
					c0-25.6,20.7-46.3,46.3-46.3h5.6c25.6,0,46.3,20.7,46.3,46.3V354.3z"/>
				<g>
					<path class="st22" d="M353.2,239.9c0,54.1-42.4,97.8-94.8,97.8l0,0c-52.4,0-94.8-43.8-94.8-97.8v-56.4
						c0-54,42.4-97.8,94.8-97.8l0,0c52.4,0,94.8,43.8,94.8,97.8V239.9z"/>
				</g>
				<g>
					<circle class="st2" cx="225.6" cy="229.8" r="9.9"/>
					<circle class="st2" cx="291.3" cy="229.8" r="9.9"/>
				</g>
				<g>
					<polygon class="st33" points="344.5,242.8 356.3,243 356.6,135.6 332.3,117.9 					"/>
					<polygon class="st33" points="160.5,242 172.3,242.1 185.3,117.5 160.3,134.6 					"/>
				</g>
				<g>
					<g>
						<path class="st19" d="M293.2,294.8c-0.5-1.1-0.7-1.6-1.2-2.7c-2.5-5.5-9.2-7.8-15.3-6.2c-11.9,3.2-24.6,3.2-36.5,0
							c-6.1-1.6-12.8,0.7-15.3,6.2c-0.5,1.1-0.7,1.6-1.2,2.7C248,303.8,268.8,303.8,293.2,294.8z"/>
					</g>
				</g>
			</g>
			<g>
				<circle class="st37" cx="196" cy="108" r="37"/>
				<circle class="st37" cx="249" cy="99" r="41"/>
				<circle class="st37" cx="301" cy="105" r="37"/>
				<circle class="st37" cx="346" cy="124" r="30"/>
				<circle class="st37" cx="158.9" cy="118.8" r="25.8"/>
				<circle class="st37" cx="135.7" cy="146.3" r="20.7"/>
			</g>
			<g>
				<g>
					<path class="st18" d="M206.6,215.1c10-5,21-6.7,32.1-6.5c10.1,0.2,10-15.4,0-15.6c-13.9-0.3-27.5,2.4-39.9,8.6
						C189.7,206.1,197.6,219.6,206.6,215.1L206.6,215.1z"/>
				</g>
				<g>
					<path class="st18" d="M310.3,215.1c-10-5-21-6.7-32.1-6.5c-10.1,0.2-10-15.4,0-15.6c13.9-0.3,27.5,2.4,39.9,8.6
						C327.1,206.1,319.2,219.6,310.3,215.1L310.3,215.1z"/>
				</g>
			</g>
		</g>
	</g>
</g>
</svg>
