<?xml version="1.0" encoding="utf-8"?>
<!-- Generator: Adobe Illustrator 19.2.1, SVG Export Plug-In . SVG Version: 6.00 Build 0)  -->
<svg version="1.1" xmlns="http://www.w3.org/2000/svg" xmlns:xlink="http://www.w3.org/1999/xlink" x="0px" y="0px"
	 viewBox="0 0 512 512" style="enable-background:new 0 0 512 512;" xml:space="preserve">
<style type="text/css">
	.st0{fill:#298063;}
	.st1{fill:#87B7DD;}
	.st2{fill:#1F3049;}
	.st3{fill:#B9BDC2;}
	.st4{fill:#CA6A46;}
	.st5{fill:#5082A9;}
	.st6{fill:#D5872A;}
	.st7{fill:#57646E;}
	.st8{fill:#75A897;}
	.st9{fill:#C93A3A;}
	.st10{fill:#E6CA56;}
	.st11{fill:#DA8B80;}
	.st12{fill:#E4C856;}
	.st13{fill:#C9402E;}
	.st14{fill:#A32929;}
	.st15{clip-path:url(#SVGID_2_);}
	.st16{fill:#D17F73;}
	.st17{fill:#E6A585;}
	.st18{fill:#733D28;}
	.st19{fill:#FFFFFF;}
	.st20{fill:#4E3333;}
	.st21{clip-path:url(#SVGID_4_);}
	.st22{fill:#FFB6AB;}
	.st23{clip-path:url(#SVGID_6_);}
	.st24{clip-path:url(#SVGID_8_);}
	.st25{clip-path:url(#SVGID_10_);}
	.st26{fill:#F09162;}
	.st27{clip-path:url(#SVGID_12_);}
	.st28{clip-path:url(#SVGID_14_);}
	.st29{clip-path:url(#SVGID_16_);}
	.st30{clip-path:url(#SVGID_18_);}
	.st31{clip-path:url(#SVGID_20_);}
	.st32{clip-path:url(#SVGID_22_);}
	.st33{fill:#572020;}
	.st34{clip-path:url(#SVGID_24_);}
	.st35{clip-path:url(#SVGID_26_);}
	.st36{clip-path:url(#SVGID_28_);}
	.st37{fill:#A34B2A;}
	.st38{clip-path:url(#SVGID_30_);}
	.st39{clip-path:url(#SVGID_32_);}
	.st40{clip-path:url(#SVGID_34_);}
	.st41{clip-path:url(#SVGID_36_);}
	.st42{fill:#E09C6F;}
	.st43{clip-path:url(#SVGID_38_);}
	.st44{clip-path:url(#SVGID_40_);}
	.st45{clip-path:url(#SVGID_42_);}
	.st46{clip-path:url(#SVGID_44_);}
	.st47{clip-path:url(#SVGID_46_);}
	.st48{clip-path:url(#SVGID_48_);}
	.st49{clip-path:url(#SVGID_50_);}
	.st50{clip-path:url(#SVGID_52_);}
	.st51{clip-path:url(#SVGID_54_);}
	.st52{clip-path:url(#SVGID_56_);}
	.st53{clip-path:url(#SVGID_58_);}
	.st54{clip-path:url(#SVGID_60_);}
	.st55{clip-path:url(#SVGID_62_);}
	.st56{clip-path:url(#SVGID_64_);fill:#75A897;}
	.st57{clip-path:url(#SVGID_64_);fill:#A34B2A;}
	.st58{clip-path:url(#SVGID_64_);}
	.st59{clip-path:url(#SVGID_64_);fill:#1F3049;}
	.st60{clip-path:url(#SVGID_66_);}
	.st61{clip-path:url(#SVGID_68_);}
	.st62{clip-path:url(#SVGID_70_);}
	.st63{clip-path:url(#SVGID_72_);}
	.st64{clip-path:url(#SVGID_74_);}
	.st65{clip-path:url(#SVGID_76_);}
	.st66{clip-path:url(#SVGID_78_);}
	.st67{clip-path:url(#SVGID_80_);}
	.st68{clip-path:url(#SVGID_82_);}
	.st69{clip-path:url(#SVGID_84_);}
	.st70{clip-path:url(#SVGID_86_);}
	.st71{clip-path:url(#SVGID_88_);}
	.st72{clip-path:url(#SVGID_90_);}
	.st73{clip-path:url(#SVGID_92_);}
	.st74{clip-path:url(#SVGID_94_);}
	.st75{clip-path:url(#SVGID_96_);}
	.st76{clip-path:url(#SVGID_98_);}
	.st77{clip-path:url(#SVGID_98_);fill:none;}
	.st78{clip-path:url(#SVGID_100_);}
</style>
<g id="ICON">
	<g>
		<ellipse class="st9" cx="256.4" cy="254.7" rx="228.4" ry="228.4"/>
	</g>
</g>
<g id="Layer_6">
	<g>
		<defs>
			
				<ellipse id="SVGID_25_" transform="matrix(1 -6.825589e-03 6.825589e-03 1 -1.7293 1.7555)" cx="256.3" cy="254.2" rx="228.4" ry="228.4"/>
		</defs>
		<clipPath id="SVGID_2_">
			<use xlink:href="#SVGID_25_"  style="overflow:visible;"/>
		</clipPath>
		<g class="st15">
			<g>
				
					<ellipse transform="matrix(0.9431 -0.3326 0.3326 0.9431 -65.4398 67.4699)" class="st26" cx="164.4" cy="224.9" rx="22.2" ry="38.6"/>
				
					<ellipse transform="matrix(0.3197 -0.9475 0.9475 0.3197 24.7631 481.761)" class="st26" cx="347.9" cy="223.6" rx="38.6" ry="22.2"/>
			</g>
			<path class="st10" d="M491.7,552.8l-0.1-1.1c-0.4-64.5-25-126.7-54.5-138.4l-125.7-49.7c-29.5-11.7-77.7-11.4-107.1,0.6
				L77.7,415.9c-29.4,12-53,74.6-52.6,139L25,556L491.7,552.8z"/>
			
				<rect x="201.5" y="312" transform="matrix(1 -6.827949e-03 6.827949e-03 1 -2.3753 1.7627)" class="st26" width="110.9" height="73.4"/>
			<g>
				<path class="st17" d="M309.4,108.1c-0.7-0.7-1.2-1.5-1.5-2.2l-107.4,0.7c-14.3,18.5-27.9,37.5-40.4,57.3c0,0.1-0.1,0.1-0.1,0.2
					l17,134.3c0.1,19.1,16.8,34.4,37.2,34.3l87.4-0.6c20.4-0.1,36.9-15.7,36.8-34.8l13.1-136C338.8,142.6,325.6,124.2,309.4,108.1z"
					/>
			</g>
			<g>
				<polygon class="st19" points="219.8,435.8 165.8,401.3 182.3,362.4 257.1,383.5 				"/>
				<g>
					<polygon class="st19" points="295.2,435.3 348.7,400.1 331.6,361.4 257.2,383.5 					"/>
				</g>
			</g>
			<g>
				<polygon class="st2" points="171,220.4 159.2,220.5 158.7,142.8 182.9,130 				"/>
				<polygon class="st2" points="354.9,220.1 343.2,220.2 329.9,130 354.9,142.4 				"/>
				<g>
					<path class="st2" d="M295,82.6H191.5v77.4h163.4v-17.4C354.9,109.4,328.1,82.6,295,82.6z"/>
					<path class="st2" d="M298.3,82.6H135.9V100c0,33.1,26.8,59.9,59.9,59.9h102.4V82.6z"/>
				</g>
			</g>
			<g>
				
					<ellipse transform="matrix(1 -6.829862e-03 6.829862e-03 1 -1.4651 1.5296)" class="st2" cx="223.2" cy="215.3" rx="9.9" ry="9.9"/>
				
					<ellipse transform="matrix(1 -6.825159e-03 6.825159e-03 1 -1.4595 1.9768)" class="st2" cx="288.9" cy="214.8" rx="9.9" ry="9.9"/>
			</g>
			<g>
				<path class="st2" d="M220.1,260.7c0.8,23,16.9,41.3,36.6,41.2c19.6-0.1,35.5-18.7,36-41.7c-10.1,5.5-22.6,8.7-36.2,8.8
					C242.8,269.1,230.2,266,220.1,260.7z"/>
				<path class="st19" d="M236.2,282.4l40.7-0.3c3.5,0,6.2-2.8,6.2-6.3l-0.1-11.4c-8,2.8-17,4.5-26.6,4.5
					c-9.5,0.1-18.6-1.4-26.6-4.2l0.1,11.4C229.9,279.6,232.7,282.4,236.2,282.4z"/>
			</g>
			<g>
				<g>
					<path class="st20" d="M201.3,199c10.1-2.2,20.1-4.3,30.2-6.5c7.9-1.7,4.5-13.7-3.4-12c-10.1,2.2-20.1,4.3-30.2,6.5
						C190,188.7,193.4,200.7,201.3,199L201.3,199z"/>
				</g>
				<g>
					<path class="st20" d="M313.8,186.2c-10.1-2-20.2-4-30.3-6c-7.9-1.6-11.2,10.5-3.2,12.1c10.1,2,20.2,4,30.3,6
						C318.5,199.9,321.7,187.8,313.8,186.2L313.8,186.2z"/>
				</g>
			</g>
		</g>
	</g>
</g>
</svg>
